<?xml version="1.0" standalone="no"?>
<!DOCTYPE svg PUBLIC "-//W3C//DTD SVG 20010904//EN" "http://www.w3.org/TR/2001/REC-SVG-20010904/DTD/svg10.dtd">
<svg version="1.0" xmlns="http://www.w3.org/2000/svg" width="600.000000pt" height="600.000000pt"
    viewBox="0 0 600.000000 600.000000" preserveAspectRatio="xMidYMid meet">
    <g transform="translate(0.000000,600.000000) scale(0.100000,-0.100000)">
        <path d="M3407 5510 c-45 -25 -86 -84 -94 -136 -9 -60 -8 -172 1 -250 9 -75 0
-98 -29 -74 -10 9 -23 6 -55 -10 -27 -14 -51 -19 -66 -16 -14 4 -33 2 -43 -4
-11 -5 -53 -15 -94 -21 -65 -10 -82 -9 -148 10 -74 20 -180 43 -294 61 -33 6
-96 18 -141 28 -79 18 -119 16 -112 -3 3 -13 95 -85 106 -85 5 0 16 -7 23 -17
8 -9 38 -31 66 -50 48 -31 52 -36 46 -63 -6 -31 11 -41 32 -21 6 5 20 5 33 0
30 -11 25 -43 -6 -47 -31 -5 -40 -31 -17 -48 11 -8 16 -21 12 -34 -6 -24 5
-26 23 -5 10 13 9 19 -6 36 -16 17 -16 22 -4 29 23 15 27 12 34 -22 13 -67 2
-98 -36 -98 -11 0 -18 -5 -15 -12 2 -7 14 -12 25 -10 30 4 29 -25 -3 -62 -14
-16 -25 -39 -25 -52 0 -14 -8 -25 -20 -29 -11 -3 -20 -11 -20 -16 0 -5 -7 -9
-16 -9 -8 0 -12 -5 -8 -11 3 -6 1 -15 -6 -19 -6 -4 -10 -15 -8 -24 2 -12 16
-4 56 34 28 28 52 57 52 65 0 8 11 30 24 49 13 20 25 53 26 73 4 72 0 138 -8
141 -5 1 -7 15 -4 31 3 22 -3 33 -28 54 -17 15 -35 25 -40 22 -5 -3 -11 4 -15
15 -6 19 -91 90 -165 138 -27 18 -30 21 -10 16 14 -4 34 -8 45 -9 11 -1 38 -6
60 -12 22 -6 58 -14 80 -16 22 -3 47 -7 55 -11 8 -3 35 -8 60 -10 70 -8 85
-10 90 -18 4 -5 22 -9 90 -22 8 -1 23 -6 33 -11 20 -8 154 11 172 25 6 4 29 8
53 8 24 1 54 8 67 16 13 9 31 13 39 10 8 -3 29 5 46 18 l32 23 -7 80 c-12 132
-12 136 -2 199 11 82 26 113 59 127 15 6 26 15 23 19 -8 13 73 21 141 14 35
-4 64 -11 64 -17 0 -6 3 -7 6 -4 4 4 19 -1 33 -11 55 -36 67 -43 84 -48 9 -4
17 -10 17 -15 0 -5 9 -9 20 -9 11 0 20 -4 20 -9 0 -4 25 -19 55 -33 30 -14 52
-28 48 -31 -3 -4 0 -7 8 -7 8 0 27 -11 43 -25 42 -36 110 -53 203 -51 46 0 79
-3 75 -8 -3 -5 11 -7 32 -3 20 3 35 3 32 -1 -4 -6 14 -10 67 -12 9 -1 17 -4
17 -8 0 -4 21 -14 48 -21 26 -7 53 -15 60 -17 7 -2 16 -4 20 -5 4 0 13 -6 21
-12 7 -6 20 -12 29 -13 8 -2 26 -16 38 -32 13 -16 47 -41 76 -55 29 -15 67
-39 83 -55 17 -16 46 -36 65 -46 44 -20 81 -54 99 -88 8 -15 17 -26 20 -24 9
6 31 -21 24 -28 -4 -3 -1 -6 5 -6 7 0 20 -8 30 -17 10 -10 29 -27 43 -38 13
-11 31 -33 39 -49 17 -34 85 -86 112 -86 10 0 18 -4 18 -10 0 -5 7 -10 15 -10
8 0 15 -3 15 -8 0 -4 23 -18 50 -30 45 -21 56 -22 103 -12 89 18 172 15 209
-8 18 -12 39 -30 46 -42 7 -11 16 -19 21 -16 4 3 17 -12 29 -32 12 -20 33 -49
47 -64 26 -29 59 -34 178 -28 l37 2 0 -2176 c0 -1444 3 -2176 10 -2176 7 0 10
740 10 2201 l0 2202 -32 -8 c-30 -6 -119 -9 -175 -6 -25 1 -32 21 -8 21 23 0
18 18 -7 22 -15 2 -24 13 -30 35 -6 23 -16 35 -33 39 -15 4 -25 13 -25 24 0
11 -10 20 -27 25 -15 3 -32 13 -38 22 -15 20 -154 24 -210 5 -41 -14 -105 -9
-105 8 0 6 -7 10 -15 10 -8 0 -19 8 -24 19 -7 12 -26 21 -55 25 -32 5 -47 13
-51 27 -4 11 -18 27 -31 36 -14 9 -23 21 -20 28 6 17 -4 27 -46 49 -20 10 -39
27 -41 38 -3 10 -19 24 -36 31 -33 12 -42 37 -15 37 13 0 10 6 -10 25 -15 14
-33 25 -41 25 -8 0 -26 11 -41 25 -15 14 -36 25 -47 25 -22 0 -60 38 -51 52 3
5 -5 6 -20 2 -26 -6 -37 8 -16 21 16 10 12 28 -5 21 -8 -3 -37 0 -64 7 -42 10
-51 15 -53 37 -2 20 -10 26 -36 30 -18 3 -33 8 -32 13 0 4 0 11 0 16 0 5 6 11
13 14 6 2 3 2 -8 -1 -65 -15 -109 -5 -104 24 4 23 -2 26 -16 8 -12 -15 -16
-16 -24 -5 -7 11 -9 11 -14 0 -4 -10 -9 -8 -22 9 -9 12 -21 20 -26 16 -6 -3
-32 -3 -60 1 l-50 7 16 25 c9 13 14 30 12 36 -2 7 -11 -2 -20 -20 -18 -34 -46
-44 -110 -39 -50 4 -53 9 -28 44 12 17 21 36 20 44 0 7 -5 3 -11 -9 -6 -13
-14 -23 -18 -23 -5 0 -11 -12 -14 -26 -6 -22 -11 -25 -34 -19 -15 3 -28 11
-30 16 -2 5 -10 9 -17 9 -8 0 -24 10 -37 23 -13 12 -38 29 -55 36 -18 7 -33
17 -33 22 0 5 -5 9 -12 9 -6 0 -40 17 -76 38 -177 102 -160 95 -257 99 -76 3
-96 0 -128 -17z" />
        <path d="M4225 5351 c-3 -5 -1 -12 5 -16 5 -3 10 1 10 9 0 18 -6 21 -15 7z" />
        <path d="M4323 5335 c-9 -24 1 -27 15 -5 8 13 8 20 2 20 -6 0 -13 -7 -17 -15z" />
        <path d="M4385 5290 c-23 -26 -4 -26 26 0 18 15 20 19 8 20 -9 0 -24 -9 -34
-20z" />
        <path d="M4495 5270 c-4 -6 -10 -8 -15 -5 -5 3 -11 1 -15 -5 -3 -5 3 -10 13
-10 11 0 22 7 26 15 6 17 0 20 -9 5z" />
        <path d="M5165 4690 c3 -5 13 -10 21 -10 8 0 14 5 14 10 0 6 -9 10 -21 10 -11
0 -17 -4 -14 -10z" />
        <path d="M2512 4478 c-7 -7 -12 -18 -12 -25 0 -7 -29 -41 -65 -77 -36 -35 -65
-68 -65 -73 0 -5 9 -16 20 -26 21 -18 26 -37 10 -37 -5 0 -7 -7 -4 -15 5 -11
2 -13 -10 -9 -16 6 -20 17 -17 42 1 7 -7 4 -19 -8 -25 -25 -20 -47 15 -60 30
-11 33 -30 5 -30 -23 0 -27 -18 -5 -26 8 -4 15 -12 15 -19 0 -7 6 -18 14 -24
12 -10 14 -1 14 64 -1 42 3 80 8 83 5 4 10 16 12 26 4 22 25 58 59 99 13 16
21 33 18 38 -4 5 1 6 9 3 12 -5 14 1 11 25 -2 17 1 33 6 36 11 7 12 25 1 25
-4 0 -13 -5 -20 -12z m-79 -164 c-3 -8 -9 -14 -13 -14 -13 0 -22 19 -15 30 9
14 34 0 28 -16z" />
        <path d="M2305 4089 c-17 -17 -17 -21 -5 -29 8 -5 10 -10 4 -10 -14 0 -25 -36
-17 -56 3 -8 12 -14 20 -14 12 0 14 7 10 29 -13 63 19 96 40 41 6 -16 17 -30
25 -30 7 0 19 -13 26 -30 17 -37 31 -39 24 -4 -3 19 -7 22 -13 12 -6 -9 -9 -8
-9 8 0 11 -5 25 -12 32 -7 7 -8 12 -3 12 4 0 0 9 -10 20 -10 11 -24 20 -32 20
-7 0 -13 5 -13 10 0 15 -13 11 -35 -11z" />
        <path d="M2235 4010 c-8 -13 5 -13 25 0 13 8 13 10 -2 10 -9 0 -20 -4 -23 -10z" />
        <path d="M2330 3979 c0 -12 15 -38 34 -58 76 -79 97 -106 102 -130 3 -14 9
-34 15 -43 12 -24 12 -85 -1 -93 -6 -4 -9 -14 -6 -23 3 -10 6 -57 7 -107 0
-49 7 -117 14 -150 7 -33 12 -72 11 -87 -1 -28 -1 -28 -76 -28 -73 0 -518 -19
-1400 -60 -1086 -50 -1030 -46 -1030 -67 0 -16 66 -15 385 3 55 3 129 7 165 9
36 1 115 5 175 8 61 4 171 9 245 12 650 26 865 36 925 41 87 8 194 12 405 19
182 5 234 11 225 26 -4 5 -2 9 3 9 12 0 8 81 -8 170 -6 37 -9 116 -7 184 5
136 -3 186 -41 240 -29 43 -125 146 -136 146 -3 0 -6 -10 -6 -21z" />
        <path d="M2269 3126 c-2 -2 -74 -7 -159 -11 -85 -3 -177 -8 -205 -10 -27 -2
-111 -7 -185 -10 -74 -4 -157 -8 -185 -11 -27 -2 -117 -6 -200 -9 -132 -5
-533 -25 -790 -40 -49 -3 -135 -8 -190 -10 -55 -3 -138 -8 -185 -11 -47 -3
-97 -5 -112 -4 -16 0 -28 -4 -28 -10 0 -5 -7 -10 -16 -10 -13 0 -15 -16 -13
-102 1 -57 8 -123 16 -148 8 -25 26 -85 40 -135 14 -49 31 -112 39 -140 8 -27
25 -88 38 -135 13 -47 29 -98 35 -113 6 -16 9 -33 5 -38 -3 -5 0 -9 5 -9 6 0
11 -12 11 -27 0 -14 16 -81 36 -147 20 -67 38 -130 40 -141 1 -11 14 -58 29
-105 24 -79 34 -117 37 -147 1 -7 5 -13 10 -13 4 0 8 -11 8 -24 0 -14 5 -37
11 -53 7 -15 13 -35 14 -43 1 -8 10 -40 19 -70 10 -30 20 -70 23 -89 3 -19 14
-59 25 -90 10 -31 23 -74 28 -96 5 -22 13 -51 18 -65 5 -14 7 -31 5 -37 -3 -7
-1 -13 4 -13 5 0 9 -10 10 -22 1 -11 6 -24 11 -27 4 -3 16 -17 25 -31 10 -14
22 -26 27 -26 6 -1 15 -2 21 -3 5 0 8 -5 5 -9 -6 -10 53 -6 129 8 86 15 149
23 167 21 9 -1 19 3 22 8 4 6 13 8 20 5 7 -3 58 2 112 11 93 16 197 32 254 40
14 1 57 8 95 15 39 6 77 12 85 12 8 0 74 9 145 20 72 11 148 22 170 24 22 2
74 11 115 19 41 7 119 19 172 25 54 6 112 15 128 20 17 5 38 6 46 3 8 -3 14
-1 14 4 0 6 12 11 28 11 65 2 145 12 227 28 11 2 40 6 65 9 87 10 256 37 312
50 31 7 59 11 62 8 8 -9 46 8 66 30 26 27 25 73 0 156 -34 112 -81 274 -90
311 -5 19 -23 85 -40 145 -17 61 -45 160 -61 220 -16 61 -40 146 -53 190 -13
44 -34 114 -46 155 -12 41 -28 93 -34 115 -7 22 -24 77 -36 123 -13 45 -31 90
-40 100 -8 9 -24 39 -34 66 -12 31 -29 54 -47 65 -16 9 -29 21 -29 28 0 6 -5
13 -11 15 -5 2 -15 37 -21 78 -6 41 -16 81 -21 88 -6 8 -40 12 -102 12 -50 0
-94 -2 -96 -4z m186 -89 c1 -50 6 -69 27 -101 15 -22 25 -43 22 -48 -3 -4 7
-8 21 -8 34 0 63 -60 46 -97 -10 -22 -9 -23 14 -17 31 8 25 24 130 -341 264
-919 316 -1114 305 -1135 -6 -11 -12 -20 -14 -20 -2 0 -93 -13 -202 -30 -110
-16 -323 -48 -474 -70 -151 -22 -394 -58 -540 -80 -146 -22 -404 -60 -575 -85
-170 -25 -368 -54 -439 -65 -71 -11 -142 -20 -158 -20 -54 0 -70 31 -127 235
-76 275 -217 781 -256 920 -19 66 -57 203 -86 305 -28 102 -71 254 -95 339
-51 179 -56 237 -21 250 22 9 246 22 1122 66 270 13 580 29 690 36 402 22 481
26 545 27 l65 2 0 -63z" />
        <path d="M2820 2580 c8 -5 11 -10 7 -10 -4 0 -3 -9 3 -19 11 -21 25 -30 135
-86 109 -55 216 -125 282 -184 34 -30 76 -59 95 -66 108 -37 155 -100 169
-224 9 -91 25 -166 49 -241 48 -149 53 -177 47 -272 -4 -70 -2 -99 8 -118 8
-14 14 -44 15 -68 0 -41 5 -48 98 -143 53 -55 120 -116 149 -136 28 -19 54
-41 57 -48 5 -15 76 -57 76 -46 0 13 -87 100 -135 136 -22 17 -57 49 -79 72
-21 24 -43 40 -49 36 -5 -3 -7 -2 -4 4 4 6 -14 29 -38 52 -42 39 -54 68 -46
114 1 4 -5 20 -12 35 -9 17 -15 70 -16 146 -2 111 -17 191 -50 271 -13 32 -41
186 -41 227 0 37 -17 87 -33 99 -5 3 -8 10 -7 15 3 17 -35 63 -57 69 -13 3
-23 10 -23 15 0 6 -6 10 -14 10 -7 0 -19 7 -26 15 -7 8 -21 15 -31 15 -17 0
-149 103 -157 122 -2 4 -9 8 -16 8 -7 0 -26 11 -42 25 -16 14 -35 25 -43 25
-8 0 -19 6 -25 14 -6 8 -57 37 -113 65 -55 28 -107 58 -113 66 -7 8 -18 15
-24 15 -6 0 -4 -5 4 -10z" />
        <path d="M2790 2553 c0 -10 10 -47 21 -83 11 -36 23 -76 25 -90 3 -14 14 -52
25 -84 10 -33 19 -64 19 -70 0 -12 54 -189 78 -256 9 -25 17 -52 18 -60 3 -27
66 -245 74 -255 4 -5 10 -28 14 -50 4 -22 13 -60 22 -85 25 -78 66 -223 79
-280 10 -44 10 -58 0 -70 -33 -40 2 -78 77 -82 25 -2 44 -7 40 -12 -3 -5 7 -7
21 -4 16 3 24 1 20 -5 -4 -6 2 -8 15 -5 12 4 22 3 22 -1 0 -4 12 -8 26 -9 15
-1 32 -6 38 -11 12 -9 209 -63 239 -64 9 -1 17 -6 17 -11 0 -5 3 -6 6 -3 4 3
14 2 24 -3 16 -8 46 -16 95 -24 11 -2 43 -12 70 -21 48 -17 125 -29 125 -20 0
12 -76 38 -280 95 -124 35 -261 73 -305 85 -44 12 -115 31 -157 41 -75 17 -90
26 -68 39 16 10 11 85 -10 155 -11 36 -59 198 -106 360 -174 598 -245 836
-256 863 -13 34 -28 44 -28 20z" />
        <path d="M7 1909 c10 -44 74 -283 103 -384 16 -55 73 -257 126 -450 53 -192
105 -366 115 -386 19 -39 66 -84 98 -94 12 -4 21 -19 25 -45 4 -28 15 -46 39
-64 19 -15 189 -77 437 -161 223 -75 518 -175 655 -222 250 -85 329 -108 319
-91 -5 7 -64 36 -89 42 -5 2 -23 9 -40 16 -28 11 -200 72 -200 70 0 -1 -12 3
-26 9 -15 5 -67 22 -115 36 -49 15 -108 36 -132 46 -23 11 -50 20 -60 22 -9 1
-21 5 -27 8 -5 4 -23 10 -40 14 -34 10 -35 10 -55 18 -17 6 -91 30 -102 33 -5
1 -10 3 -13 4 -3 1 -9 3 -14 4 -5 0 -13 4 -17 9 -4 4 -18 7 -30 7 -13 0 -25 4
-28 9 -3 4 -27 14 -53 21 -27 6 -57 16 -68 22 -12 5 -27 10 -35 12 -8 2 -28 8
-45 15 -16 7 -38 13 -47 14 -10 1 -18 5 -18 9 0 4 -6 8 -12 8 -25 0 -147 53
-142 61 3 5 2 9 -3 9 -4 0 -9 12 -9 26 -1 15 -16 39 -35 57 -18 18 -29 25 -24
17 8 -13 7 -13 -8 -1 -26 21 -85 97 -67 86 12 -7 13 -6 3 6 -12 15 -72 206
-78 249 -2 14 -16 66 -30 115 -53 181 -74 252 -116 405 -5 19 -23 82 -40 140
-16 58 -32 118 -35 135 -9 44 -45 138 -60 154 -11 12 -12 11 -7 -10z" />
        <path d="M4555 244 c-33 -8 -76 -16 -95 -19 -42 -5 -81 -13 -135 -26 -22 -5
-56 -11 -75 -14 -19 -2 -55 -9 -80 -15 -59 -14 -73 -17 -150 -29 -36 -6 -123
-22 -195 -36 -71 -14 -148 -28 -170 -31 -21 -3 -43 -8 -47 -10 -4 -3 -27 -7
-50 -10 -52 -6 -148 -32 -148 -41 0 -9 106 3 231 26 63 12 269 51 459 87 377
71 489 92 535 100 29 5 31 3 52 -53 11 -32 29 -84 40 -115 16 -53 43 -79 43
-43 0 30 -64 201 -83 223 -23 25 -45 26 -132 6z" />
    </g>
</svg>